<?xml version="1.0" encoding="UTF-8"?>
<svg version="1.1" xmlns="http://www.w3.org/2000/svg" width="1024" height="1024">
<path d="M0 0 C337.92 0 675.84 0 1024 0 C1024 337.92 1024 675.84 1024 1024 C686.08 1024 348.16 1024 0 1024 C0 686.08 0 348.16 0 0 Z " fill="#FEFEFE" transform="translate(0,0)"/>
<path d="M0 0 C33.66 0 67.32 0 102 0 C106.455 4.95 106.455 4.95 111 10 C113.55367981 12.7384687 116.11301958 15.46888274 118.6875 18.1875 C120.08096846 19.66383667 121.47419288 21.14040373 122.8671875 22.6171875 C123.55780273 23.34905273 124.24841797 24.08091797 124.95996094 24.83496094 C132.17092574 32.48776561 139.34462294 40.17508882 146.4375 47.9375 C151.96446488 53.98312434 157.56782747 59.95533886 163.17578125 65.92578125 C166.79216488 69.77612855 170.39772965 73.6364515 174 77.5 C178.22821408 82.03454571 182.46366637 86.56213235 186.70727539 91.08227539 C192.33291557 97.07460274 197.93978425 103.08268215 203.50561523 109.13061523 C207.97235797 113.98101378 212.47884507 118.7937794 216.98486328 123.60766602 C220.34351845 127.20301123 223.66167453 130.82862417 226.9375 134.5 C229.96858301 137.8952612 233.10475761 141.12888844 236.34765625 144.3203125 C237.99379791 145.99369527 239.53158393 147.72093045 241.0625 149.5 C245.10455097 154.18696247 249.3440086 158.68245059 253.57519531 163.19775391 C258.41673145 168.36663067 263.21216814 173.57536657 267.98828125 178.8046875 C269.47108741 180.42441287 269.47108741 180.42441287 271 182 C271.33 131.84 271.66 81.68 272 30 C353.26180092 30 353.26180092 30 366 36.5 C366.671521 36.84111816 367.34304199 37.18223633 368.03491211 37.53369141 C383.87740234 46.00736267 393.65362753 60.1167206 399 77 C401.2184414 84.49120709 401.27670905 91.76700953 401.24050903 99.53443909 C401.2413824 100.89514192 401.24313578 102.25584442 401.24568737 103.61654514 C401.25013925 107.33597081 401.2421871 111.05528034 401.23213124 114.77469122 C401.22346776 118.79297532 401.22641895 122.81125325 401.22793579 126.82954407 C401.22898281 133.78498947 401.22272534 140.74039726 401.21146011 147.69583321 C401.19518327 157.75213283 401.18999487 167.80841433 401.18748413 177.8647257 C401.18311046 194.18171871 401.16981024 210.49869169 401.15087891 226.81567383 C401.13251163 242.66300354 401.11835927 258.5103278 401.10986328 274.35766602 C401.10933783 275.33503605 401.10881239 276.31240609 401.10827102 277.3193934 C401.10566088 282.22273303 401.10313348 287.1260727 401.10064721 292.02941239 C401.07992491 332.68628886 401.0447083 373.34314328 401 414 C388.89107459 414.39589634 376.78371495 414.69693084 364.66960907 414.88080692 C359.04253285 414.96911769 353.41991805 415.08861426 347.79541016 415.2824707 C342.354946 415.46878534 336.91873697 415.56914161 331.47532654 415.61291313 C329.41130077 415.64405113 327.34747868 415.70486604 325.28529358 415.79741096 C316.28438098 416.18485061 308.35066581 416.52224726 301.26025391 410.32418823 C297.74169413 406.80299426 294.61985499 403.03638787 291.60935974 399.07667351 C289.30608403 396.10458993 286.7702712 393.41889871 284.1875 390.6875 C282.45734513 388.79256847 280.72815504 386.89675553 279 385 C272.44054535 377.81583538 265.83936536 370.67437821 259.19433594 363.56933594 C254.69567158 358.75549422 250.23711139 353.90723714 245.79296875 349.04296875 C243.76451143 346.82724671 241.72339687 344.62380995 239.67578125 342.42578125 C239.10609619 341.81420166 238.53641113 341.20262207 237.94946289 340.57250977 C236.85987446 339.40403144 235.76930455 338.23646711 234.67749023 337.07006836 C231.93120739 334.12484906 229.24068587 331.14337776 226.6015625 328.1015625 C222.88753854 323.83473453 219.02002553 319.72623552 215.125 315.625 C210.14380348 310.35796459 205.21731504 305.05748361 200.39453125 299.64453125 C197.18189836 296.09648481 193.90380965 292.61183326 190.625 289.125 C185.26403047 283.42390452 179.94299695 277.69130345 174.6640625 271.9140625 C167.50924062 264.08782039 160.3003018 256.31200499 153.0625 248.5625 C152.48290527 247.94165527 151.90331055 247.32081055 151.30615234 246.68115234 C148.92606495 244.13195521 146.54580843 241.58293036 144.16210938 239.03710938 C142.37717402 237.13051708 140.59465958 235.22168665 138.8125 233.3125 C138.27181885 232.73636963 137.7311377 232.16023926 137.17407227 231.56665039 C134.59296215 228.79767336 132.27801511 226.03735348 130 223 C129.505 317.545 129.505 317.545 129 414 C86.43 414 43.86 414 0 414 C0 277.38 0 140.76 0 0 Z " fill="#030201" transform="translate(254,317)"/>
<path d="M0 0 C13.86 0 27.72 0 42 0 C57.16113744 16.24407583 57.16113744 16.24407583 64.30078125 24.05078125 C76.89011998 37.80613688 89.63476726 51.41677563 102.39160156 65.01660156 C108.36064138 71.38131052 114.31470176 77.75992422 120.26611328 84.14111328 C122.59333944 86.63611469 124.9213532 89.13038033 127.24951172 91.62451172 C128.4114811 92.86945577 129.5732666 94.11457148 130.73486328 95.35986328 C133.73477095 98.57555526 136.73785648 101.78819126 139.74609375 104.99609375 C145.0860964 110.69545903 150.40298383 116.38968546 155.49609375 122.3125 C157.6145941 124.68962247 159.88609657 126.89757732 162.15795898 129.12695312 C163.93566806 130.9345852 165.59745191 132.79667919 167.25 134.71875 C170.89747394 138.91315245 174.67635072 142.96644359 178.5 147 C179.90505474 148.48818041 181.30999988 149.97646428 182.71484375 151.46484375 C183.42366699 152.21491699 184.13249023 152.96499023 184.86279297 153.73779297 C188.26744467 157.3415744 191.66680575 160.95027869 195.0625 164.5625 C195.65675781 165.19220703 196.25101563 165.82191406 196.86328125 166.47070312 C200.45705856 170.29516209 203.94678907 174.19235605 207.37084961 178.16967773 C209.01818623 180.02043192 210.7336233 181.76296917 212.5 183.5 C214.87002003 185.83066727 217.10160298 188.21860622 219.26953125 190.73828125 C222.81393761 194.81458267 226.47759993 198.76205047 230.1875 202.6875 C231.51080806 204.0933817 232.83371972 205.49963661 234.15625 206.90625 C234.8059375 207.5971875 235.455625 208.288125 236.125 209 C240.29060995 213.44331728 244.41102943 217.92838157 248.53515625 222.41015625 C250.05237245 224.05684157 251.5726475 225.70065431 253.09375 227.34375 C253.61171143 227.90360596 254.12967285 228.46346191 254.66333008 229.0402832 C255.62623498 230.08092382 256.58955867 231.12117723 257.5534668 232.16088867 C262.08642099 237.06368131 266.53157312 242.03508124 271 247 C271.33 199.48 271.66 151.96 272 103 C274.97 103.99 277.94 104.98 281 106 C293.22667244 109.5739504 305.02148526 108.90364937 317.01171875 104.97265625 C320 104 320 104 325 103 C325 180.55 325 258.1 325 338 C290 338 290 338 282.5 332.25 C280.12890625 328.64453125 280.12890625 328.64453125 279.08642578 326.79150391 C277.27531946 323.80500993 274.8568126 321.43501597 272.4375 318.9375 C271.52680302 317.9495042 270.61922745 316.9586218 269.71484375 315.96484375 C266.51755624 312.47281169 263.31820218 308.98267559 260.11816406 305.49316406 C257.86186487 303.03247259 255.60733857 300.57021844 253.35546875 298.10546875 C246.55243123 290.66495773 239.6850536 283.28641099 232.79833984 275.92333984 C229.28320196 272.16386982 225.77264775 268.40011905 222.26171875 264.63671875 C219.28524544 261.44668682 216.30664687 258.25868487 213.32421875 255.07421875 C207.61911548 248.97902295 201.95198325 242.86035096 196.38671875 236.63671875 C191.60320805 231.35215292 186.71167573 226.16691507 181.83935547 220.96435547 C169.26966889 207.54045074 156.77763858 194.04747131 144.35888672 180.48388672 C141.61331366 177.48575646 138.86582709 174.48937894 136.11816406 171.49316406 C133.86186487 169.03247259 131.60733857 166.57021844 129.35546875 164.10546875 C123.69480517 157.91437696 117.99198662 151.76486023 112.26245117 145.63745117 C108.00478334 141.0824261 103.76946276 136.50753612 99.54589844 131.92089844 C95.05997997 127.05395969 90.53656359 122.22248001 86.01318359 117.39038086 C82.67502446 113.81723841 79.37836519 110.21343649 76.125 106.5625 C72.84510959 102.88780796 69.42785636 99.40306025 65.91796875 95.94921875 C63.33498884 93.32415362 60.93381232 90.56144769 58.54296875 87.76171875 C57.09760261 86.11143995 55.55120975 84.55120975 54 83 C53.67 167.15 53.34 251.3 53 338 C35.51 338 18.02 338 0 338 C0 226.46 0 114.92 0 0 Z " fill="#E87A15" transform="translate(292,355)"/>
<path d="M0 0 C0.86351074 0.01401855 1.72702148 0.02803711 2.61669922 0.04248047 C16.22076673 0.33231015 29.61211341 2.73811962 43 5 C43.74523926 5.12101074 44.49047852 5.24202148 45.25830078 5.36669922 C87.70000161 12.32417935 129.259387 32.84744565 163 59 C163.83917969 59.64453125 164.67835938 60.2890625 165.54296875 60.953125 C171.37714963 65.51658604 176.82266477 70.42557663 182.2421875 75.46484375 C184.39121096 77.44036249 186.56007074 79.33404364 188.8125 81.1875 C191.89233074 83.79351062 194.4710233 86.69302754 197.07421875 89.76953125 C198.41397712 91.3212595 199.79537062 92.83760269 201.20703125 94.32421875 C233.08161706 127.94958956 253.04617352 173.32224328 259 219 C259.19529297 220.40572266 259.19529297 220.40572266 259.39453125 221.83984375 C260.10480757 227.98610154 260.19151777 234.1933052 260.3125 240.375 C260.34239014 241.24431152 260.37228027 242.11362305 260.40307617 243.00927734 C260.44028802 247.12978919 260.32978913 249.4304963 258.2265625 253.0625 C255.57273321 255.37179707 253.57879379 255.59485499 250.09765625 255.6640625 C246.75436065 254.60566352 245.22236305 252.66835431 243 250 C242.23632812 246.58447266 242.23632812 246.58447266 242.03125 242.6640625 C241.98558899 241.95652832 241.93992798 241.24899414 241.8928833 240.52001953 C241.79555286 239.00699983 241.70745034 237.49336287 241.62780762 235.97930908 C241.41191896 232.00248338 241.10742527 228.03290403 240.796875 224.0625 C240.73574524 223.2763028 240.67461548 222.49010559 240.6116333 221.68008423 C237.74148341 186.8193222 222.77309426 151.89013699 202 124 C201.5992627 123.45794922 201.19852539 122.91589844 200.78564453 122.35742188 C195.87657114 115.74042799 190.74226742 109.40132513 185.15234375 103.33984375 C183.03283386 101.03569416 180.98564658 98.68004566 178.9375 96.3125 C175.23565464 92.15336786 171.26073458 88.5723506 167 85 C165.61554688 83.78376953 165.61554688 83.78376953 164.203125 82.54296875 C151.20971262 71.18536557 137.03729143 61.44903437 122 53 C121.30245605 52.60603027 120.60491211 52.21206055 119.88623047 51.80615234 C91.94572673 36.17904285 61.69247033 25.70209656 30 21 C29.02401855 20.85191895 28.04803711 20.70383789 27.04248047 20.55126953 C2.12085821 16.91499074 -23.64665996 16.47492228 -48.66015625 19.5625 C-61.49378959 21.02422308 -61.49378959 21.02422308 -66.125 17.875 C-68.35696906 14.45264744 -68.83328611 12.99977332 -68 9 C-64.22734006 3.64525686 -60.06340513 3.05338071 -54 2 C-36.12731216 -0.57334538 -18.00718221 -0.33206217 0 0 Z " fill="#040404" transform="translate(594,172)"/>
<path d="M0 0 C0.84782043 -0.00331329 1.69564087 -0.00662659 2.56915283 -0.01004028 C13.73877863 -0.0358041 24.51496093 0.62740673 35.5625 2.3125 C37.21584351 2.55383667 37.21584351 2.55383667 38.90258789 2.80004883 C78.07445222 8.77674348 115.73822056 24.30539219 146.86523438 48.97363281 C148.32601927 50.12595508 149.80943563 51.24948306 151.296875 52.3671875 C192.31110595 84.08316112 218.0912119 131.26324591 225.9375 182.125 C226.5806613 188.04885409 226.85548134 193.98279601 227 199.9375 C227.03464355 200.79190674 227.06928711 201.64631348 227.10498047 202.52661133 C227.1338995 206.9236193 226.98944325 208.7490216 224.25390625 212.359375 C221.5625 214.3125 221.5625 214.3125 218.0625 214.9375 C213.45925154 214.11549135 212.33632102 213.08618673 209.5625 209.3125 C208.71860291 205.39779773 208.59215716 201.49388081 208.4375 197.5 C208.30167012 195.23009568 208.15974871 192.96054761 208.01171875 190.69140625 C207.94130371 189.59199707 207.87088867 188.49258789 207.79833984 187.35986328 C207.29739825 180.88703417 206.02964589 174.6339851 204.5625 168.3125 C204.39911133 167.58434082 204.23572266 166.85618164 204.06738281 166.10595703 C193.21926998 118.45246323 161.63836217 78.14554549 120.75 52.1875 C106.99074844 43.6994845 92.89903094 36.45256599 77.5625 31.3125 C76.85222656 31.0654834 76.14195312 30.8184668 75.41015625 30.56396484 C62.06207545 25.93377601 48.46801327 22.77683917 34.5625 20.3125 C33.50893311 20.12196045 32.45536621 19.9314209 31.36987305 19.73510742 C22.34629693 18.26172409 13.52701003 18.03535816 4.41235352 18.10668945 C1.9994039 18.12500452 -0.41315967 18.12719773 -2.82617188 18.12695312 C-18.27291362 17.93021966 -18.27291362 17.93021966 -33.4375 20.3125 C-43.89719391 21.31962321 -43.89719391 21.31962321 -48.6875 18.1875 C-50.77342417 14.76062458 -51.25688858 13.2455652 -50.4375 9.3125 C-43.74650544 1.38895381 -34.25478426 1.56008863 -24.48681641 0.59960938 C-16.34392716 -0.04691429 -8.16321877 0.0046265 0 0 Z " fill="#040404" transform="translate(576.4375,212.6875)"/>
<path d="M0 0 C2.01841967 0.37777179 4.04622591 0.70440461 6.07421875 1.02685547 C29.74871693 5.0990715 55.0913421 15.81283856 74.16796875 30.40576172 C74.97935303 31.01387695 74.97935303 31.01387695 75.80712891 31.63427734 C87.16275487 40.16284204 98.23105436 49.30412806 107.16796875 60.40576172 C107.91304687 61.30166016 108.658125 62.19755859 109.42578125 63.12060547 C124.59499373 81.97512819 136.1540455 105.04844212 140.79296875 128.90576172 C141.03273438 130.11232422 141.2725 131.31888672 141.51953125 132.56201172 C142.84862541 140.4404976 143.41826556 148.23158913 143.54296875 156.21826172 C143.59904297 157.60948242 143.59904297 157.60948242 143.65625 159.02880859 C143.74356605 165.75699527 143.74356605 165.75699527 140.86328125 169.00341797 C137.25607127 170.88021273 135.17803969 171.12184582 131.16796875 170.40576172 C127.77052373 167.2358021 125.91502008 165.09375059 125.6015625 160.40185547 C125.58528214 158.88241088 125.58761916 157.36268869 125.60546875 155.84326172 C124.84013171 124.03064868 112.59987458 94.61312841 92.16796875 70.40576172 C91.74580078 69.89996582 91.32363281 69.39416992 90.88867188 68.87304688 C83.85787226 60.52859785 75.9439414 53.85168986 67.16796875 47.40576172 C66.26820313 46.73544922 65.3684375 46.06513672 64.44140625 45.37451172 C58.62311461 41.16317681 52.53295076 37.71697272 46.16796875 34.40576172 C45.33652344 33.93525391 44.50507812 33.46474609 43.6484375 32.97998047 C19.38918697 19.80255448 -8.5997641 14.97763097 -35.89453125 14.90576172 C-37.03817642 14.89875244 -37.03817642 14.89875244 -38.20492554 14.89160156 C-47.58140337 14.86932393 -56.52895227 15.57221551 -65.72950745 17.45178223 C-70.36114448 18.35739668 -74.14872025 18.48908079 -78.83203125 17.40576172 C-81.75415502 14.78334295 -82.69934262 13.21847958 -83.33203125 9.34326172 C-82.83203125 6.40576172 -82.83203125 6.40576172 -81.45703125 4.21826172 C-62.10459767 -9.14413289 -21.88603707 -4.12917805 0 0 Z " fill="#040404" transform="translate(608.83203125,256.59423828125)"/>
<path d="M0 0 C9.21632938 5.60412286 15.89296034 13.89816812 18.5703125 24.42578125 C20.62890836 36.7586419 17.81211985 46.57719026 10.80859375 56.7265625 C4.91890031 64.30735604 -2.73715099 67.97307069 -12 70 C-24.16252454 71.19762277 -32.92167416 69.18583167 -42.70703125 61.94921875 C-49.53457448 56.14522545 -54.26686702 47.81421913 -56 39 C-56.9123328 27.03440443 -54.66917347 17.35987762 -47 8 C-34.89217527 -5.19646687 -15.901215 -8.64307977 0 0 Z " fill="#BE9A4A" transform="translate(609,374)"/>
<path d="M0 0 C4.48713182 3.49245425 8.76548084 7.20789329 13 11 C13.79277344 11.69609375 14.58554687 12.3921875 15.40234375 13.109375 C37.00461771 33.26628886 47.63381772 62.23110184 49.2890625 91.21875 C49.51974763 101.20112458 49.51974763 101.20112458 46 106 C42.86128812 107.56935594 40.46144178 107.35201103 37 107 C34.125 105.375 34.125 105.375 32 102 C31.53683328 98.75315449 31.41960034 95.55062428 31.2890625 92.2734375 C29.78380688 63.72782416 17.7597449 39.76896415 -2.80078125 20.35546875 C-15.95763877 8.76532768 -32.8561428 -0.25374972 -50 -4 C-51.27101563 -4.27972656 -52.54203125 -4.55945313 -53.8515625 -4.84765625 C-71.70465167 -8.44751781 -89.71743634 -7.91509071 -107.58984375 -4.75390625 C-110.6801408 -4.21360359 -113.76962071 -3.70821099 -116.87890625 -3.2890625 C-117.59763916 -3.18932129 -118.31637207 -3.08958008 -119.05688477 -2.98681641 C-121 -3 -121 -3 -124 -4.8125 C-126.33050961 -7.36149488 -126.91925861 -8.39443958 -127.375 -11.8125 C-126.99004125 -15.08464942 -126.42048577 -16.71097017 -123.9296875 -18.90625 C-119.40430926 -21.47124171 -114.06355996 -22.10885466 -109 -23 C-108.13358887 -23.16918945 -107.26717773 -23.33837891 -106.37451172 -23.51269531 C-69.82881642 -30.27839946 -30.14042042 -21.90059326 0 0 Z " fill="#050505" transform="translate(653,320)"/>
<path d="M0 0 C13.86 0 27.72 0 42 0 C43.98 2.31 45.96 4.62 48 7 C45 7 45 7 40 6 C28.12 5.67 16.24 5.34 4 5 C4 114.23 4 223.46 4 336 C19.51 336 35.02 336 51 336 C51 251.85 51 167.7 51 81 C51.99 81.33 52.98 81.66 54 82 C53.67 166.48 53.34 250.96 53 338 C35.51 338 18.02 338 0 338 C0 226.46 0 114.92 0 0 Z " fill="#E88023" transform="translate(292,355)"/>
<path d="M0 0 C13.86 0 27.72 0 42 0 C43.98 2.31 45.96 4.62 48 7 C45 7 45 7 43.3125 5.625 C42 4 42 4 42 2 C21.705 1.505 21.705 1.505 1 1 C1 111.55 1 222.1 1 336 C17.5 336 34 336 51 336 C51 251.85 51 167.7 51 81 C51.99 81.33 52.98 81.66 54 82 C53.67 166.48 53.34 250.96 53 338 C35.51 338 18.02 338 0 338 C0 226.46 0 114.92 0 0 Z " fill="#C77735" transform="translate(292,355)"/>
<path d="M0 0 C2.97 0.99 5.94 1.98 9 3 C19.77468418 6.14952307 31.24019785 6.10378908 42 3 C44.203125 3.44140625 44.203125 3.44140625 46 4 C39.87374108 7.23828749 34.66865576 7.43300856 27.8125 7.3125 C26.28580688 7.29993164 26.28580688 7.29993164 24.72827148 7.28710938 C17.62453604 7.17362211 10.93935926 6.55703301 4 5 C4.07277664 5.83355515 4.14555328 6.66711029 4.22053528 7.52592468 C5.25698627 21.24945798 5.06412894 34.95313052 4.94921875 48.70703125 C4.93483208 50.69380653 4.92044836 52.68058185 4.90639621 54.66735953 C4.86225696 60.88221156 4.81201759 67.09699371 4.75805664 73.31176758 C4.70260075 79.71377733 4.6587438 86.11579692 4.62020558 92.5179289 C4.58650019 98.04018483 4.54520128 103.56234927 4.49788028 109.08450526 C4.4698124 112.3724458 4.4456309 115.66033224 4.4272213 118.94834328 C4.40574633 122.59828126 4.37185312 126.24789756 4.3347168 129.89770508 C4.32911995 131.52695419 4.32911995 131.52695419 4.32341003 133.18911743 C4.30449707 134.67516731 4.30449707 134.67516731 4.28520203 136.1912384 C4.27837245 137.05261319 4.27154287 137.91398798 4.26450634 138.80146503 C4 141 4 141 2 144 C1.34 144 0.68 144 0 144 C0 96.48 0 48.96 0 0 Z " fill="#E47E26" transform="translate(564,458)"/>
<path d="M0 0 C0 77.55 0 155.1 0 235 C-11.55 235 -23.1 235 -35 235 C-37.31 232.36 -39.62 229.72 -42 227 C-41.34 226.67 -40.68 226.34 -40 226 C-37 227 -37 227 -34 232 C-23.44 232.33 -12.88 232.66 -2 233 C-2 157.1 -2 81.2 -2 3 C-3.65 3 -5.3 3 -7 3 C-4.74624683 0.74624683 -3.20799182 0 0 0 Z " fill="#CD7B38" transform="translate(617,458)"/>
<path d="M0 0 C1.98 0.66 3.96 1.32 6 2 C5.34 2.66 4.68 3.32 4 4 C3.34 3.67 2.68 3.34 2 3 C2 49.53 2 96.06 2 144 C1.34 144 0.68 144 0 144 C0 96.48 0 48.96 0 0 Z " fill="#D67C35" transform="translate(564,458)"/>
<path d="M0 0 C0.99 0.33 1.98 0.66 3 1 C2.34 1 1.68 1 1 1 C1 48.85 1 96.7 1 146 C-1.97 143.525 -1.97 143.525 -5 141 C-3.68 140.67 -2.36 140.34 -1 140 C-0.67 93.8 -0.34 47.6 0 0 Z " fill="#2A0600" transform="translate(563,457)"/>
<path d="M0 0 C1.15039081 1.15039081 2.30044707 2.30111734 3.44921875 3.453125 C4.50916662 4.51040298 5.57454233 5.56225995 6.64453125 6.609375 C10.36764067 10.27365425 13.84106003 14.07444467 17.25 18.03125 C19.45044013 20.50674515 21.7949465 22.80813186 24.15795898 25.12695312 C25.92607251 26.92482814 27.57916583 28.77571981 29.22265625 30.6875 C33.02312507 35.05909678 36.96264213 39.28719676 40.9375 43.5 C41.96327148 44.59054687 41.96327148 44.59054687 43.00976562 45.703125 C44.67194507 47.46991714 46.33536639 49.23552048 48 51 C47.01 51.33 46.02 51.66 45 52 C45 51.34 45 50.68 45 50 C44.34 50 43.68 50 43 50 C41.58829235 48.40324822 40.24600532 46.74486398 38.9375 45.0625 C35.12706866 40.27471776 31.09598998 35.97791873 26.65234375 31.77734375 C25 30 25 30 25 28 C24.34 28 23.68 28 23 28 C21.51953125 26.49609375 21.51953125 26.49609375 19.8125 24.4375 C17.46720242 21.6746132 15.09170595 19.03320243 12.5 16.5 C1.61329881 5.73617354 1.61329881 5.73617354 0 0 Z " fill="#C87938" transform="translate(430,459)"/>
<path d="M0 0 C5.0387524 4.17753707 9.57239461 8.56082923 14 13.375 C15.30972431 14.78661749 16.61962558 16.19807082 17.9296875 17.609375 C18.93080566 18.6912207 18.93080566 18.6912207 19.95214844 19.79492188 C22.00263862 22.00284121 24.06525818 24.19868441 26.1328125 26.390625 C26.80183594 27.10041504 27.47085937 27.81020508 28.16015625 28.54150391 C29.43526888 29.89361762 30.71125909 31.24490447 31.98828125 32.59521484 C35.46706078 36.29381792 38.79107854 40.06453028 42 44 C39 44 39 44 37.08984375 42.1640625 C36.02443359 40.90722656 36.02443359 40.90722656 34.9375 39.625 C29.50676627 33.37788146 23.72654179 27.51704285 17.70703125 21.8359375 C16 20 16 20 16 18 C15.34 18 14.68 18 14 18 C14 17.34 14 16.68 14 16 C13.34 16 12.68 16 12 16 C10.64864497 14.46729429 9.36746113 12.87223227 8.125 11.25 C6.08999756 8.60372307 4.1329888 6.12976762 1.7421875 3.796875 C0 2 0 2 0 0 Z " fill="#CC7A36" transform="translate(363,388)"/>
<path d="M0 0 C0.75474609 0.00064453 1.50949219 0.00128906 2.28710938 0.00195312 C5.83291407 0.03006964 9.02695316 0.23577468 12.4375 1.1875 C12.4375 2.1775 12.4375 3.1675 12.4375 4.1875 C4.1875 4.1875 -4.0625 4.1875 -12.5625 4.1875 C-12.8925 3.5275 -13.2225 2.8675 -13.5625 2.1875 C-8.99768382 -0.10852086 -4.98302673 -0.08126825 0 0 Z " fill="#B5954F" transform="translate(589.5625,369.8125)"/>
<path d="M0 0 C-7.987473 5.324982 -16.57083756 5.87686656 -26 5 C-28.921875 3.98046875 -28.921875 3.98046875 -31 3 C-31 2.67 -31 2.34 -31 2 C-26.03125466 1.17723234 -21.36767314 0.91821762 -16.3125 1 C-10.71518915 1.09000701 -5.52652363 -0.15351455 0 0 Z " fill="#B39659" transform="translate(609,439)"/>
<path d="M0 0 C1.97986082 0.11347619 3.95891598 0.2410935 5.9375 0.375 C7.03964844 0.44460938 8.14179687 0.51421875 9.27734375 0.5859375 C10.62505859 0.79089844 10.62505859 0.79089844 12 1 C12.33 1.66 12.66 2.32 13 3 C14.83528863 3.46727852 14.83528863 3.46727852 17.03515625 3.6328125 C18.24848633 3.75849609 18.24848633 3.75849609 19.48632812 3.88671875 C20.7615332 4.00466797 20.7615332 4.00466797 22.0625 4.125 C22.91650391 4.21136719 23.77050781 4.29773438 24.65039062 4.38671875 C26.76610633 4.59947228 28.88296524 4.80079953 31 5 C31 4.34 31 3.68 31 3 C35.95 2.34 40.9 1.68 46 1 C40.73741057 6.26258943 31.07023481 6.3218086 24 6.375 C15.54585664 6.3014419 6.69068355 5.58078044 0 0 Z " fill="#300E02" transform="translate(566,458)"/>
<path d="M0 0 C5.01454301 4.15855732 9.53699589 8.51446361 13.9375 13.3125 C14.54287598 13.96677979 15.14825195 14.62105957 15.77197266 15.29516602 C20.24417032 20.14114324 24.66420892 25.03134501 29 30 C26 30 26 30 24.17578125 28.5390625 C23.56089844 27.90742187 22.94601562 27.27578125 22.3125 26.625 C21.68988281 25.99851562 21.06726563 25.37203125 20.42578125 24.7265625 C19 23 19 23 19 21 C18.34 21 17.68 21 17 21 C15.625 19.63671875 15.625 19.63671875 14 17.6875 C10.1180693 13.09976372 6.04361528 8.70985957 1.94140625 4.3203125 C0 2 0 2 0 0 Z " fill="#C97731" transform="translate(534,572)"/>
<path d="M0 0 C1.15039081 1.15039081 2.30044707 2.30111734 3.44921875 3.453125 C4.50916662 4.51040298 5.57454233 5.56225995 6.64453125 6.609375 C10.36577296 10.27181605 13.83982958 14.06809765 17.2421875 18.02734375 C18.96535886 19.96112494 20.76402889 21.76195003 22.625 23.5625 C25.90232661 26.77324435 28.43930097 30.19774993 31 34 C29.0625 33.65234375 29.0625 33.65234375 27 33 C26.31867549 31.33927151 25.65257873 29.672233 25 28 C22.98264795 26.65589738 22.98264795 26.65589738 21 26 C21 25.34 21 24.68 21 24 C20.34 24 19.68 24 19 24 C17.58984375 22.6015625 17.58984375 22.6015625 15.9375 20.625 C12.38129329 16.43508769 8.71611441 12.35965009 5.015625 8.296875 C0 2.58139535 0 2.58139535 0 0 Z " fill="#C57633" transform="translate(482,515)"/>
<path d="M0 0 C5.87142936 -0.17345152 11.74135832 -0.30025826 17.61474609 -0.38452148 C19.61110418 -0.41965609 21.60728299 -0.46737596 23.60302734 -0.52807617 C26.47798903 -0.61330797 29.35056507 -0.65275654 32.2265625 -0.68359375 C33.11429352 -0.71972275 34.00202454 -0.75585175 34.91665649 -0.79307556 C41.03688817 -0.79692587 41.03688817 -0.79692587 43.93963623 1.60494995 C45.43626531 3.34030397 46.76174616 5.07378186 48 7 C45 7 45 7 43.3125 5.625 C42 4 42 4 42 2 C28.14 1.67 14.28 1.34 0 1 C0 0.67 0 0.34 0 0 Z " fill="#B97438" transform="translate(292,355)"/>
<path d="M0 0 C0.33 0 0.66 0 1 0 C1 8.58 1 17.16 1 26 C0.67 25.34 0.34 24.68 0 24 C-0.66 24 -1.32 24 -2 24 C-2.02684679 21.35409986 -2.04676357 18.70846904 -2.0625 16.0625 C-2.07087891 15.30775391 -2.07925781 14.55300781 -2.08789062 13.77539062 C-2.09652441 11.85005687 -2.05224333 9.92464419 -2 8 C-1.67 7.67 -1.34 7.34 -1 7 C-0.63239269 4.67182036 -0.29758419 2.3381615 0 0 Z " fill="#BE9845" transform="translate(557,392)"/>
<path d="M0 0 C1.23825459 3.71476377 0.70587257 6.18828813 0 10 C-0.33 10.33 -0.66 10.66 -1 11 C-1.08669432 12.4887186 -1.10703494 13.981445 -1.09765625 15.47265625 C-1.09443359 16.37177734 -1.09121094 17.27089844 -1.08789062 18.19726562 C-1.07951172 19.14279297 -1.07113281 20.08832031 -1.0625 21.0625 C-1.05798828 22.01189453 -1.05347656 22.96128906 -1.04882812 23.93945312 C-1.0370011 26.29303065 -1.02052025 28.64648477 -1 31 C-4.89563652 25.15654521 -4.49480743 18.84343833 -4 12 C-3.09550172 7.82709998 -1.91246685 3.8249337 0 0 Z " fill="#AF945A" transform="translate(557,389)"/>
<path d="M0 0 C6.90956173 5.64045856 12.51492906 11.9791092 18 19 C17.01 19 16.02 19 15 19 C14.67 18.01 14.34 17.02 14 16 C13.34 16 12.68 16 12 16 C12 15.34 12 14.68 12 14 C11.34 14 10.68 14 10 14 C10 13.34 10 12.68 10 12 C9.34 12 8.68 12 8 12 C6.0546875 9.8828125 6.0546875 9.8828125 3.875 7.125 C3.15054688 6.22007812 2.42609375 5.31515625 1.6796875 4.3828125 C0 2 0 2 0 0 Z " fill="#C6752D" transform="translate(513,549)"/>
<path d="M0 0 C3.80836925 1.54252027 5.98117914 3.89121156 8.6875 6.9375 C9.47511719 7.81277344 10.26273437 8.68804688 11.07421875 9.58984375 C13 12 13 12 14 15 C16.00016466 16.20882096 16.00016466 16.20882096 18 17 C17.67 17.99 17.34 18.98 17 20 C16.59160889 19.56131592 16.18321777 19.12263184 15.76245117 18.6706543 C13.90470018 16.67574151 12.04610895 14.68161345 10.1875 12.6875 C9.22360352 11.65206055 9.22360352 11.65206055 8.24023438 10.59570312 C7.61826172 9.92861328 6.99628906 9.26152344 6.35546875 8.57421875 C5.78465576 7.96151123 5.21384277 7.34880371 4.62573242 6.7175293 C3.54801082 5.57895422 2.43550758 4.47226448 1.2902832 3.40161133 C0 2 0 2 0 0 Z " fill="#C37532" transform="translate(455,554)"/>
<path d="M0 0 C1 2 1 2 0.4375 3.9375 C-1.52640121 6.7552713 -3.93976549 7.53363763 -7 9 C-7.99 10.485 -7.99 10.485 -9 12 C-9.66 11.67 -10.32 11.34 -11 11 C-9.54540569 9.35086118 -8.08620743 7.70578218 -6.625 6.0625 C-5.81289063 5.14597656 -5.00078125 4.22945313 -4.1640625 3.28515625 C-2 1 -2 1 0 0 Z " fill="#B19658" transform="translate(569,376)"/>
<path d="M0 0 C4.95532767 3.86757281 8.96476648 8.18876004 13 13 C12.01 13.33 11.02 13.66 10 14 C5 8.25 5 8.25 5 6 C3.68 5.67 2.36 5.34 1 5 C0.67 3.35 0.34 1.7 0 0 Z " fill="#320E03" transform="translate(562,671)"/>
<path d="M0 0 C3.21524305 1.40844718 5.32183868 3.10344786 7.75 5.625 C8.67039062 6.57246094 8.67039062 6.57246094 9.609375 7.5390625 C10.29773438 8.26222656 10.29773438 8.26222656 11 9 C10.67 9.99 10.34 10.98 10 12 C8.51476358 10.56877218 7.03699538 9.12979111 5.5625 7.6875 C4.73878906 6.88699219 3.91507812 6.08648437 3.06640625 5.26171875 C1 3 1 3 0 0 Z " fill="#C8742C" transform="translate(355,446)"/>
<path d="M0 0 C1.9375 0.8125 1.9375 0.8125 4 2 C4.33 2.99 4.66 3.98 5 5 C5.99 5 6.98 5 8 5 C8.66 6.98 9.32 8.96 10 11 C8.8944811 10.06409496 7.79064547 9.12620142 6.6875 8.1875 C6.07261719 7.66542969 5.45773437 7.14335938 4.82421875 6.60546875 C1.48047722 3.6626898 1.48047722 3.6626898 0 2 C0 1.34 0 0.68 0 0 Z " fill="#CD772F" transform="translate(557,664)"/>
<path d="M0 0 C0.66 0 1.32 0 2 0 C2 0.66 2 1.32 2 2 C2.66 2 3.32 2 4 2 C4 2.66 4 3.32 4 4 C4.5775 4.226875 5.155 4.45375 5.75 4.6875 C8.5663661 6.33038023 10.08077114 8.39533227 12 11 C11.67 11.66 11.34 12.32 11 13 C9.34810857 11.40207236 7.7036661 9.79644124 6.0625 8.1875 C5.14597656 7.29417969 4.22945313 6.40085937 3.28515625 5.48046875 C1 3 1 3 0 0 Z " fill="#C87734" transform="translate(493,595)"/>
<path d="M0 0 C3.81936528 1.55603771 6.26044438 3.95604931 9 7 C9 7.66 9 8.32 9 9 C9.66 9 10.32 9 11 9 C10.67 9.99 10.34 10.98 10 12 C8.33032474 10.19019128 6.66417692 8.3773524 5 6.5625 C4.28457031 5.7880957 4.28457031 5.7880957 3.5546875 4.99804688 C0 1.11328125 0 1.11328125 0 0 Z " fill="#CD782F" transform="translate(429,526)"/>
<path d="M0 0 C3.25597758 0.24118352 4.7276304 1.52224212 6.8125 3.875 C7.534375 4.90625 8.25625 5.9375 9 7 C8.67 7.99 8.34 8.98 8 10 C6.66070495 8.71451591 5.32871357 7.42141845 4 6.125 C2.88625 5.04605469 2.88625 5.04605469 1.75 3.9453125 C0 2 0 2 0 0 Z " fill="#C9742E" transform="translate(505,608)"/>
<path d="M0 0 C3.80443255 0.54349036 5.6081779 2.03084153 8 5 C8.75 7.75 8.75 7.75 9 10 C7.86800647 9.0919838 6.74467637 8.17316174 5.625 7.25 C4.99851562 6.73953125 4.37203125 6.2290625 3.7265625 5.703125 C1.91687682 3.91800519 0.99882545 2.32050356 0 0 Z " fill="#CB772E" transform="translate(383,476)"/>
<path d="M0 0 C4 4 8 8 12 12 C11.34 12.66 10.68 13.32 10 14 C8.51207039 12.42489875 7.0349394 10.83959136 5.5625 9.25 C4.73878906 8.36828125 3.91507812 7.4865625 3.06640625 6.578125 C1.16931982 4.21124968 0.37897068 2.9490809 0 0 Z " fill="#BF7335" transform="translate(430,459)"/>
<path d="M0 0 C4.52615993 3.67832017 8.39424999 7.41086363 12 12 C9 12 9 12 6.73828125 9.8828125 C5.93777344 8.97273438 5.13726562 8.06265625 4.3125 7.125 C3.50425781 6.22007812 2.69601562 5.31515625 1.86328125 4.3828125 C0 2 0 2 0 0 Z " fill="#CB7934" transform="translate(351,375)"/>
<path d="M0 0 C4.13621084 3.3810038 7.81316569 6.66590534 11 11 C10.01 11 9.02 11 8 11 C7.67 10.01 7.34 9.02 7 8 C6.34 8 5.68 8 5 8 C5 7.34 5 6.68 5 6 C4.34 6 3.68 6 3 6 C0 2.53846154 0 2.53846154 0 0 Z " fill="#C87731" transform="translate(340,363)"/>
<path d="M0 0 C0.66 0 1.32 0 2 0 C2 0.66 2 1.32 2 2 C3.175625 2.309375 3.175625 2.309375 4.375 2.625 C7 4 7 4 8.3125 7.125 C8.6528125 8.548125 8.6528125 8.548125 9 10 C7.86800647 9.0919838 6.74467637 8.17316174 5.625 7.25 C4.99851562 6.73953125 4.37203125 6.2290625 3.7265625 5.703125 C1.91687682 3.91800519 0.99882545 2.32050356 0 0 Z " fill="#CA7932" transform="translate(481,582)"/>
<path d="M0 0 C0 0.66 0 1.32 0 2 C-0.66 2 -1.32 2 -2 2 C-2 2.66 -2 3.32 -2 4 C-3.98 4 -5.96 4 -8 4 C-8.33 3.34 -8.66 2.68 -9 2 C-5.62902617 0.50178941 -3.79557881 0 0 0 Z " fill="#A1874D" transform="translate(585,370)"/>
<path d="M0 0 C-0.33 2.31 -0.66 4.62 -1 7 C-2.7074998 5.71937515 -4.37373596 4.38232443 -6 3 C-6 2.34 -6 1.68 -6 1 C-4 0 -4 0 0 0 Z " fill="#DF812B" transform="translate(520,616)"/>
<path d="M0 0 C3.59634744 3.49359465 6.83451967 7.11098131 10 11 C7.13302508 9.71480435 5.02392288 8.42870746 3 6 C3 5.34 3 4.68 3 4 C2.01 3.67 1.02 3.34 0 3 C0 2.01 0 1.02 0 0 Z " fill="#300E03" transform="translate(478,580)"/>
<path d="M0 0 C2.3125 0.125 2.3125 0.125 5 1 C6.8125 4.0625 6.8125 4.0625 8 7 C7.01 7 6.02 7 5 7 C3.61328125 5.46875 3.61328125 5.46875 2.3125 3.5 C1.87550781 2.8503125 1.43851563 2.200625 0.98828125 1.53125 C0.49908203 0.77328125 0.49908203 0.77328125 0 0 Z " fill="#CA752D" transform="translate(575,684)"/>
<path d="M0 0 C0.66 0 1.32 0 2 0 C2 0.66 2 1.32 2 2 C2.61875 2.28875 3.2375 2.5775 3.875 2.875 C6 4 6 4 8 6 C7.67 6.99 7.34 7.98 7 9 C5.83037314 7.69013727 4.66437056 6.3770374 3.5 5.0625 C2.8503125 4.33160156 2.200625 3.60070312 1.53125 2.84765625 C0 1 0 1 0 0 Z " fill="#CB752E" transform="translate(567,675)"/>
<path d="M0 0 C0.66 0 1.32 0 2 0 C2 0.66 2 1.32 2 2 C2.66 2 3.32 2 4 2 C4 2.66 4 3.32 4 4 C5.32 4.66 6.64 5.32 8 6 C7.67 6.99 7.34 7.98 7 9 C5.83037314 7.69013727 4.66437056 6.3770374 3.5 5.0625 C2.8503125 4.33160156 2.200625 3.60070312 1.53125 2.84765625 C0 1 0 1 0 0 Z " fill="#CA762E" transform="translate(371,463)"/>
<path d="M0 0 C2.86724686 0.57344937 3.8614515 0.8614515 6 3 C6 3.99 6 4.98 6 6 C6.66 6.33 7.32 6.66 8 7 C7.01 7 6.02 7 5 7 C3.61328125 5.46875 3.61328125 5.46875 2.3125 3.5 C1.87550781 2.8503125 1.43851562 2.200625 0.98828125 1.53125 C0.49908203 0.77328125 0.49908203 0.77328125 0 0 Z " fill="#240A02" transform="translate(428,456)"/>
<path d="M0 0 C2.3125 0.1875 2.3125 0.1875 5 1 C6.875 3.4375 6.875 3.4375 8 6 C7.67 6.66 7.34 7.32 7 8 C5.83035398 6.8572081 4.66435444 5.71068285 3.5 4.5625 C2.8503125 3.92441406 2.200625 3.28632812 1.53125 2.62890625 C0 1 0 1 0 0 Z " fill="#D57B2F" transform="translate(525,630)"/>
<path d="M0 0 C2.25 0.125 2.25 0.125 5 1 C7.3125 4.0625 7.3125 4.0625 9 7 C5.48144841 5.59257936 4.61387166 4.33533477 3 1 C2.01 0.67 1.02 0.34 0 0 Z " fill="#CA7931" transform="translate(331,356)"/>
<path d="M0 0 C2.46800047 1.15173355 4.04783565 2.04783565 6 4 C5.67 4.99 5.34 5.98 5 7 C3.29115995 5.37660195 1.62553283 3.70680947 0 2 C0 1.34 0 0.68 0 0 Z " fill="#C97530" transform="translate(519,623)"/>
</svg>
